HIERARCHY
ROOT Root
{
  OFFSET 1.5094 12.0666 -2.80697
  CHANNELS 6 Xposition Yposition Zposition Zrotation Xrotation Yrotation
  JOINT Spine
  {
    OFFSET 5.3114 0 0
    CHANNELS 3 Zrotation Xrotation Yrotation
    JOINT Spine1
    {
      OFFSET 2.79004 0 0
      CHANNELS 3 Zrotation Xrotation Yrotation
      JOINT Neck
      {
        OFFSET 1.43377 0 0
        CHANNELS 3 Zrotation Xrotation Yrotation
        JOINT Head
        {
          OFFSET 1.86043 0 0
          CHANNELS 3 Zrotation Xrotation Yrotation
          End Site
          {
            OFFSET 0 0 0
          }
        }
      }
      JOINT LeftArm
      {
        OFFSET 0.0387506 0 2.55754
        CHANNELS 3 Zrotation Xrotation Yrotation
        JOINT LeftForeArm
        {
          OFFSET 4.24845 0 0
          CHANNELS 3 Zrotation Xrotation Yrotation
          JOINT LeftHand
          {
            OFFSET 4.01008 0 0
            CHANNELS 3 Zrotation Xrotation Yrotation
            End Site
            {
              OFFSET 0 0 0
            }
          }
        }
      }
      JOINT RightArm
      {
        OFFSET 0.0387506 0 -2.55754
        CHANNELS 3 Zrotation Xrotation Yrotation
        JOINT RightForeArm
        {
          OFFSET -4.24845 0 0
          CHANNELS 3 Zrotation Xrotation Yrotation
          JOINT RightHand
          {
            OFFSET -4.01009 0 0
            CHANNELS 3 Zrotation Xrotation Yrotation
            End Site
            {
              OFFSET 0 0 0
            }
          }
        }
      }
    }
  }
  JOINT LeftUpLeg
  {
    OFFSET -1.23318 0 2.05692
    CHANNELS 3 Zrotation Xrotation Yrotation
    JOINT LeftLeg
    {
      OFFSET 5.46397 0 0
      CHANNELS 3 Zrotation Xrotation Yrotation
      JOINT LeftFoot
      {
        OFFSET 4.68898 0 0
        CHANNELS 3 Zrotation Xrotation Yrotation
        End Site
        {
          OFFSET 0 0 0
        }
      }
    }
  }
  JOINT RightUpLeg
  {
    OFFSET -1.24454 0 -2.05007
    CHANNELS 3 Zrotation Xrotation Yrotation
    JOINT RightLeg
    {
      OFFSET -5.46397 0 0
      CHANNELS 3 Zrotation Xrotation Yrotation
      JOINT RightFoot
      {
        OFFSET -4.68901 0 0
        CHANNELS 3 Zrotation Xrotation Yrotation
        End Site
        {
          OFFSET 0 0 0
        }
      }
    }
  }
}
MOTION
Frames:	13
Frame Time:	0.0416667
1.70796 12.3678 -2.37344 -7.86428 79.8483 96.314 14.8358 9.01968 5.43241 -7.36529 2.49453 -1.60303 1.68634 -4.71139 -6.12919 1.50687 -7.643 3.79768 6.99974 15.5852 -146.709 56.7896 8.69223 32.0054 0.473617 3.36559 174.439 -166.122 -1.42653 -143.27 42.5859 3.41647 24.7515 0.53661 3.83866 174.491 -106.796 -3.9721 -176.148 -110.158 -0.533844 1.20557 -11.0628 20.9752 -175.981 -166.916 3.52697 173.586 -19.5209 0.469717 -0.769135 16.5887 0.518605 -179.631 
1.66856 12.3086 -2.47414 1.0041 80.8072 86.7191 13.5477 11.1273 7.5777 -7.86702 3.10511 -2.44092 2.04115 -4.87677 -6.20331 2.21266 -7.87635 3.2662 8.35142 19.2548 -147.726 56.0697 8.37758 31.6628 0.431053 3.06363 174.442 -166.518 -2.60149 -142.885 43.551 3.71133 25.2731 0.505344 3.61583 174.493 -104.557 -2.32731 -179.04 -112.779 -0.708281 1.27144 -14.1952 23.459 -174.627 -169.607 3.58722 172.853 -21.8403 0.482005 -0.765635 17.3101 1.51572 -179.505 
1.63895 12.2523 -2.60909 5.57449 82.1768 81.8549 11.7147 11.8558 8.81019 -8.05117 3.34908 -2.90002 2.01553 -4.86487 -6.07405 2.87264 -7.87757 2.6893 8.87967 22.1016 -148.668 55.697 8.21663 31.4844 0.382758 2.7209 174.444 -166.606 -2.67683 -142.897 44.5115 4.01402 25.7886 0.474111 3.39287 174.495 -99.8949 -1.89815 178.915 -115.995 -0.774256 1.32487 -15.4096 24.6052 -173.684 -173.36 5.06854 172.8 -25.2611 0.522434 -0.760826 18.3823 3.17169 -179.759 
1.61324 12.1988 -2.71597 4.59333 83.8175 82.9593 9.65311 11.1963 8.89225 -7.83184 3.18486 -2.66818 1.7855 -4.63046 -5.89801 3.1336 -7.49576 2.35811 8.75529 23.5803 -149.701 55.8101 8.2654 31.5386 0.279364 1.98637 174.447 -166.302 -1.7317 -143.243 45.1106 4.20755 26.1084 0.450784 3.22641 174.497 -92.7357 -2.81012 178.671 -119.585 -0.743207 1.35112 -11.4756 23.4456 -174.47 -177.172 6.99768 173.33 -28.8841 0.571702 -0.767554 19.7571 4.61949 179.82 
1.57588 12.1662 -2.81437 -12.1697 85.3723 100.309 7.57231 9.05897 7.67295 -7.63504 2.59239 -1.91976 1.66315 -4.25601 -5.61717 3.43891 -6.8473 2.50624 8.40497 23.1503 -150.137 56.1947 8.43192 31.7225 0.228407 1.62413 174.449 -165.346 0.223461 -144.192 45.0851 4.1992 26.0948 0.439972 3.14912 174.498 -83.4663 -4.67976 -179.848 -121.232 -0.455277 1.3357 -5.38394 20.879 -175.912 179.621 8.28555 174.037 -31.4172 0.607921 -0.776661 20.9027 4.64055 179.699 
1.53052 12.146 -2.88245 -51.9076 85.0326 140.866 5.47596 5.52351 5.67788 -7.47728 1.58783 -0.977447 1.80234 -3.83734 -5.24753 3.82481 -6.10627 2.80934 7.89875 20.8199 -149.819 56.5812 8.60068 31.9065 0.261051 1.85626 174.448 -163.924 3.11844 -145.567 44.2379 3.92711 25.6419 0.425612 3.04687 174.499 -73.7701 -7.0826 -177.549 -119.642 0.0240295 1.28099 -1.96426 17.5615 -176.637 177.201 8.59333 174.521 -33.129 0.633836 -0.781168 22.0424 2.85318 -179.927 
1.48656 12.1341 -2.92383 -76.2152 81.6996 166.064 3.53947 1.10646 3.29905 -7.31494 0.305445 0.0704174 2.09121 -3.48032 -4.88294 4.21349 -5.48021 2.90111 6.98682 17.0389 -149.18 56.7459 8.67291 31.9847 0.322828 2.29525 174.446 -162.295 6.85351 -146.861 42.5499 3.40633 24.7315 0.401785 2.87652 174.5 -65.4795 -9.72739 -175.052 -115.409 0.509956 1.197 -2.85394 13.8132 -176.704 175.626 9.05084 175.014 -34.4714 0.653806 -0.777478 23.36 0.524133 -179.403 
1.44973 12.1287 -2.9405 -82.4278 77.5272 173.164 2.27698 -2.97729 0.850861 -7.26128 -0.909015 1.17851 2.35414 -3.2817 -4.649 4.76902 -5.12982 2.77171 5.4414 12.1901 -148.693 56.4366 8.53743 31.8377 0.411393 2.92434 174.443 -160.358 11.5065 -147.933 40.687 2.86452 23.7152 0.404209 2.89401 174.5 -58.6983 -11.9938 -171.964 -110.061 0.87231 1.08632 -5.29739 10.2321 -176.94 175.25 9.75251 175.555 -35.1788 0.663969 -0.773111 24.439 -1.6336 -178.916 
1.42361 12.1328 -2.93825 -82.999 73.8181 174.645 1.72165 -6.28003 -1.4932 -7.17726 -1.90966 2.26067 2.42393 -3.16142 -4.50991 5.27945 -4.92445 2.5659 3.60121 7.09615 -148.703 55.991 8.34353 31.6252 0.501191 3.56134 174.439 -158.631 16.3794 -148.794 39.0843 2.42718 22.831 0.391065 2.80023 174.501 -53.358 -13.4883 -168.576 -104.926 1.11046 0.972802 -6.29888 6.45694 -177.754 175.84 9.59752 175.77 -35.2465 0.647953 -0.772433 25.2251 -4.47276 -178.131 
1.41047 12.1415 -2.92516 -82.6451 70.2885 175.273 1.43607 -9.40621 -3.75448 -6.90025 -2.84534 3.15972 2.36038 -3.00457 -4.305 5.42419 -4.68937 2.43597 2.29701 2.44742 -148.923 55.9741 8.33622 31.617 0.58375 4.14616 174.433 -157.559 20.2428 -149.417 37.6695 2.063 22.0438 0.359971 2.57783 174.502 -50.4116 -14.8548 -166.459 -100.795 1.2413 0.878857 -5.99196 2.8094 -178.704 176.753 8.90212 175.752 -35.1123 0.611789 -0.772447 26.1156 -7.98483 -176.98 
1.40884 12.162 -2.90956 -81.2664 67.3494 174.556 1.98732 -11.7872 -5.0163 -6.81152 -3.53604 3.57061 2.17176 -2.96373 -4.21876 5.43766 -4.65164 2.40549 1.72567 -1.73997 -149.04 56.1891 8.42945 31.7198 0.749576 5.31655 174.418 -156.764 22.6944 -150.001 36.7012 1.82584 21.5013 0.316906 2.26962 174.504 -49.9147 -16.2779 -165.395 -98.4618 1.29888 0.826145 -6.27086 0.7895 -179.206 178.24 8.76393 175.616 -34.5666 0.580857 -0.775134 26.6229 -10.3412 -176.207 
1.42038 12.1772 -2.89289 -79.385 66.1427 172.806 3.12261 -12.3213 -4.81695 -6.82989 -3.67248 3.50405 1.89714 -3.1213 -4.41784 5.27773 -4.92698 2.34251 1.69311 -5.15259 -149.277 56.4169 8.52863 31.8284 0.968188 6.85554 174.396 -156.272 23.6726 -150.409 36.1073 1.68529 21.1675 0.231013 1.6548 174.506 -51.3274 -16.8259 -164.268 -98.2928 1.31645 0.823272 -6.67493 0.372854 -179.324 179.989 9.45113 175.502 -33.5794 0.577704 -0.780918 26.3753 -10.4536 -176.337 
1.42985 12.186 -2.8591 -77.2458 66.2774 170.724 4.36382 -11.563 -4.08232 -6.71257 -3.42979 3.23852 1.76764 -3.36932 -4.75374 4.63089 -5.34112 2.31597 2.15733 -7.12819 -149.713 56.8002 8.69682 32.0103 1.03722 7.33928 174.388 -156.703 23.1236 -150.342 35.5541 1.55747 20.8551 0.181753 1.30204 174.508 -54.3835 -16.0906 -163.617 -99.8085 1.35983 0.87005 -5.47178 0.257397 -179.316 -178.571 9.79765 175.458 -32.8799 0.578945 -0.782017 26.1045 -9.98609 -176.602 
